<?xml version="1.0" standalone="no"?>
<!DOCTYPE svg PUBLIC "-//W3C//DTD SVG 20010904//EN"
 "http://www.w3.org/TR/2001/REC-SVG-20010904/DTD/svg10.dtd">
<svg version="1.0" xmlns="http://www.w3.org/2000/svg"
 width="1024.000000pt" height="1024.000000pt" viewBox="0 0 1024.000000 1024.000000"
 preserveAspectRatio="xMidYMid meet">

<g transform="translate(0.000000,1024.000000) scale(0.100000,-0.100000)"
fill="#000000" stroke="none">
<path d="M2671 7189 c-217 -42 -394 -177 -492 -374 -72 -146 -69 -68 -69
-1683 0 -963 4 -1469 11 -1512 32 -199 167 -385 348 -479 160 -83 -24 -76
2041 -76 1748 0 1838 1 1900 18 190 54 352 183 435 347 12 25 33 77 46 115 21
66 23 91 28 421 l6 351 489 -338 c319 -221 500 -341 523 -345 85 -16 163 20
199 93 18 37 19 87 22 1368 2 964 0 1344 -8 1383 -13 60 -50 109 -97 128 -47
20 -118 17 -161 -6 -20 -10 -246 -165 -502 -343 l-465 -323 -6 356 c-5 281 -9
367 -22 410 -56 196 -174 339 -352 425 -163 80 -25 75 -2037 74 -986 -1 -1813
-5 -1837 -10z m3428 -394 c176 -42 308 -179 347 -363 21 -102 21 -2518 -1
-2610 -38 -161 -147 -282 -311 -344 l-59 -23 -1525 -3 c-1103 -2 -1544 0
-1593 9 -190 31 -351 189 -387 378 -6 35 -10 493 -10 1295 0 1083 2 1249 15
1301 47 180 184 318 358 361 40 10 393 12 1577 13 1328 1 1533 -1 1589 -14z"/>
<path d="M3089 6486 c-90 -32 -157 -98 -179 -174 -6 -21 -10 -157 -10 -323 0
-280 0 -287 23 -319 36 -53 71 -74 125 -74 55 0 104 24 136 67 20 27 21 42 24
283 l3 254 218 0 c210 0 219 1 252 23 90 60 90 194 0 254 -33 22 -40 23 -295
23 -188 -1 -271 -5 -297 -14z"/>
<path d="M5364 6490 c-27 -11 -72 -65 -80 -96 -11 -45 2 -114 27 -141 45 -48
72 -53 294 -53 l205 0 0 -243 c0 -217 2 -246 19 -277 57 -108 219 -108 273 0
16 31 18 68 18 306 0 326 -5 350 -83 429 -81 80 -103 85 -401 84 -138 0 -260
-4 -272 -9z"/>
<path d="M4410 6294 c-249 -38 -418 -120 -581 -283 -163 -164 -267 -381 -300
-628 -15 -112 -6 -372 16 -473 61 -276 169 -476 359 -665 122 -121 209 -178
348 -227 278 -98 581 -32 821 180 255 224 408 567 424 949 23 533 -253 961
-712 1106 -123 39 -277 55 -375 41z m-234 -889 c84 -49 107 -159 51 -244 -31
-46 -80 -71 -141 -71 -63 0 -108 21 -142 66 -25 33 -29 46 -29 104 0 58 4 71
29 104 53 70 153 87 232 41z m880 0 c112 -66 108 -237 -9 -296 -57 -29 -141
-23 -190 14 -95 73 -87 225 17 288 46 28 128 26 182 -6z m-829 -727 c159 -109
407 -110 567 -2 60 41 98 43 131 9 35 -34 33 -79 -4 -114 -41 -38 -147 -87
-242 -112 -114 -29 -280 -23 -387 14 -135 48 -222 109 -222 157 0 10 12 32 26
49 34 41 71 41 131 -1z"/>
<path d="M2972 4641 c-18 -12 -41 -35 -52 -53 -20 -32 -20 -47 -18 -338 3
-339 2 -334 75 -406 73 -73 97 -79 377 -82 281 -4 315 2 362 63 50 65 41 144
-22 206 l-35 34 -225 3 -224 3 0 236 c0 219 -1 238 -21 272 -30 53 -65 74
-129 79 -42 2 -62 -2 -88 -17z"/>
<path d="M5869 4633 c-55 -47 -59 -68 -59 -328 l0 -235 -211 0 c-236 0 -262
-6 -299 -65 -43 -69 -19 -165 53 -219 27 -20 40 -21 295 -21 l267 0 51 27 c29
15 68 46 87 69 63 73 67 99 67 407 0 307 -3 323 -69 368 -53 36 -137 34 -182
-3z"/>
</g>
</svg>
